<svg width="330" height="264" viewBox="0 0 330 264" fill="none" xmlns="http://www.w3.org/2000/svg">
<path d="M5.2 252.1C3.4 251.3 2.1 250.3 1.3 249.2C0.4 248.1 0 247.2 0 246.5C0 246.1 0.1 245.8 0.4 245.6C0.7 245.4 0.9 245.3 1.2 245.3H3.6C3.8 245.3 4 245.3 4.1 245.4C4.2 245.5 4.4 245.6 4.6 245.9C5.5 246.9 6.4 247.8 7.5 248.4C8.6 249 10 249.3 11.8 249.3C13.8 249.3 15.4 248.9 16.6 248.2C17.8 247.5 18.4 246.4 18.4 245C18.4 244.1 18.1 243.3 17.6 242.8C17.1 242.2 16.2 241.7 15 241.3C13.8 240.9 12 240.4 9.6 239.8C6.4 239.1 4.1 238.1 2.7 236.7C1.4 235.4 0.7 233.6 0.7 231.5C0.7 230.1 1.1 228.8 1.9 227.5C2.7 226.2 3.9 225.2 5.6 224.4C7.3 223.6 9.2 223.2 11.4 223.2C13.8 223.2 15.8 223.6 17.4 224.4C19.1 225.2 20.3 226.1 21.2 227.1C22 228.1 22.5 229 22.5 229.7C22.5 230 22.4 230.3 22.1 230.5C21.9 230.7 21.6 230.8 21.2 230.8H19.1C18.6 230.8 18.2 230.6 18 230.2C17.4 229.5 16.8 228.9 16.4 228.5C16 228.1 15.3 227.8 14.5 227.5C13.7 227.2 12.7 227.1 11.4 227.1C9.6 227.1 8.2 227.5 7.2 228.2C6.2 229 5.7 230 5.7 231.3C5.7 232.1 5.9 232.7 6.3 233.3C6.7 233.8 7.5 234.3 8.7 234.8C9.9 235.3 11.6 235.7 13.9 236.2C17.4 236.9 20 238 21.4 239.4C22.9 240.8 23.6 242.6 23.6 244.7C23.6 246.3 23.1 247.8 22.2 249.1C21.3 250.4 19.9 251.4 18.1 252.2C16.3 252.9 14.1 253.3 11.6 253.3C9.2 253.3 7 252.9 5.2 252.1Z" fill="#111111"/>
<path d="M29.5001 263.1C29.3001 262.9 29.1001 262.6 29.1001 262.1V224.9C29.1001 224.5 29.2001 224.2 29.5001 223.9C29.7001 223.7 30.1001 223.6 30.4001 223.6H32.8001C33.2001 223.6 33.5001 223.7 33.8001 223.9C34.0001 224.1 34.1001 224.4 34.1001 224.9V227.4C36.3001 224.5 39.3001 223.1 43.3001 223.1C47.2001 223.1 50.2001 224.3 52.1001 226.8C54.1001 229.3 55.1001 232.4 55.2001 236.3C55.2001 236.7 55.3001 237.3 55.3001 238.2C55.3001 239.1 55.3001 239.7 55.2001 240.1C55.1001 243.9 54.1001 247.1 52.1001 249.6C50.1001 252.1 47.2001 253.4 43.3001 253.4C39.3001 253.4 36.3001 252 34.2001 249.1V262.1C34.2001 262.5 34.1001 262.8 33.8001 263C33.6001 263.2 33.2001 263.4 32.9001 263.4H30.4001C30.1001 263.4 29.8001 263.3 29.5001 263.1ZM48.2001 246.4C49.4001 244.7 50.1001 242.5 50.2001 239.8C50.2001 239.4 50.3001 238.9 50.3001 238.2C50.3001 231 47.6001 227.4 42.3001 227.4C39.7001 227.4 37.7001 228.3 36.4001 230C35.1001 231.7 34.4001 233.8 34.3001 236.1C34.3001 236.5 34.2001 237.2 34.2001 238.3C34.2001 239.4 34.2001 240.1 34.3001 240.5C34.4001 242.8 35.1001 244.7 36.5001 246.4C37.9001 248.1 39.8001 248.9 42.4001 248.9C45.0001 248.9 46.9001 248.1 48.2001 246.4Z" fill="#111111"/>
<path d="M63.6998 249.8C61.3998 247.4 60.1998 244.2 59.8998 240.1L59.7998 238.2L59.8998 236.4C60.0998 232.4 61.3998 229.2 63.6998 226.8C65.9998 224.4 68.9998 223.2 72.7998 223.2C76.8998 223.2 80.0998 224.5 82.2998 227.1C84.5998 229.7 85.6998 233.3 85.6998 237.7V238.7C85.6998 239.1 85.5998 239.4 85.2998 239.6C85.0998 239.8 84.6998 240 84.3998 240H64.9998V240.5C65.0998 242.9 65.8998 245 67.1998 246.7C68.5998 248.4 70.3998 249.3 72.6998 249.3C74.4998 249.3 75.8998 249 76.9998 248.3C78.0998 247.6 78.8998 246.9 79.4998 246.1C79.7998 245.7 80.0998 245.4 80.2998 245.3C80.4998 245.2 80.7998 245.2 81.2998 245.2H83.7998C84.0998 245.2 84.3998 245.3 84.6998 245.5C84.8998 245.7 85.0998 245.9 85.0998 246.2C85.0998 247 84.5998 248 83.5998 249.2C82.5998 250.4 81.1998 251.4 79.2998 252.2C77.4998 253 75.2998 253.5 72.8998 253.5C68.9998 253.3 65.8998 252.1 63.6998 249.8ZM80.5998 236.1V236C80.5998 233.4 79.8998 231.3 78.4998 229.6C77.0998 228 75.1998 227.1 72.7998 227.1C70.3998 227.1 68.4998 227.9 67.0998 229.6C65.6998 231.2 64.9998 233.4 64.9998 236V236.2H80.5998V236.1Z" fill="#111111"/>
<path d="M93.7001 249.9C91.5001 247.6 90.3001 244.5 90.2001 240.4L90.1001 238.2L90.2001 236C90.3001 231.9 91.5001 228.8 93.7001 226.5C95.9001 224.2 99.1001 223.1 103.1 223.1C105.8 223.1 108.1 223.6 109.9 224.5C111.7 225.5 113.1 226.6 114 228.1C114.9 229.5 115.4 230.9 115.5 232.4C115.5 232.7 115.4 233 115.1 233.3C114.8 233.6 114.5 233.7 114.2 233.7H111.7C111.3 233.7 111 233.6 110.9 233.4C110.7 233.2 110.5 232.9 110.3 232.5C109.6 230.7 108.7 229.4 107.5 228.6C106.3 227.8 104.8 227.5 103 227.5C100.6 227.5 98.8001 228.2 97.4001 229.7C96.0001 231.2 95.3001 233.4 95.2001 236.4L95.1001 238.4L95.2001 240.4C95.3001 243.4 96.1001 245.6 97.4001 247.1C98.8001 248.6 100.6 249.3 103 249.3C104.8 249.3 106.3 248.9 107.5 248.2C108.7 247.4 109.6 246.1 110.2 244.3C110.4 243.9 110.6 243.5 110.8 243.4C111 243.2 111.3 243.1 111.6 243.1H114.1C114.4 243.1 114.7 243.2 115 243.5C115.3 243.8 115.4 244.1 115.4 244.4C115.3 245.8 114.8 247.2 113.9 248.6C113 250 111.6 251.2 109.8 252.2C108 253.2 105.7 253.7 103 253.7C99.1001 253.3 96.0001 252.2 93.7001 249.9Z" fill="#111111"/>
<path d="M123.6 243V228H119.2C118.8 228 118.5 227.9 118.3 227.7C118.1 227.5 118 227.2 118 226.8V225C118 224.6 118.1 224.3 118.3 224.1C118.5 223.9 118.8 223.7 119.2 223.7H123.6V214.3C123.6 213.9 123.7 213.6 123.9 213.4C124.1 213.2 124.4 213 124.8 213H127.3C127.7 213 128 213.1 128.2 213.4C128.4 213.6 128.6 214 128.6 214.3V223.7H135.5C135.9 223.7 136.2 223.8 136.4 224.1C136.6 224.3 136.8 224.7 136.8 225V226.8C136.8 227.2 136.7 227.5 136.4 227.7C136.2 227.9 135.8 228 135.5 228H128.6V242.6C128.6 244.5 128.9 245.9 129.5 246.9C130.1 247.9 131.2 248.4 132.7 248.4H136.1C136.5 248.4 136.8 248.5 137 248.8C137.2 249 137.3 249.4 137.3 249.7V251.5C137.3 251.9 137.2 252.2 137 252.4C136.8 252.6 136.5 252.8 136.1 252.8H132.3C126.5 252.8 123.6 249.5 123.6 243Z" fill="#111111"/>
<path d="M142.1 252.4C141.9 252.2 141.7 251.9 141.7 251.5V225C141.7 224.6 141.8 224.3 142.1 224C142.3 223.7 142.6 223.6 143 223.6H145.4C145.8 223.6 146.1 223.7 146.4 224C146.6 224.2 146.8 224.6 146.8 225V227.5C148.3 225 150.9 223.7 154.6 223.7H156.8C157.2 223.7 157.5 223.8 157.8 224C158 224.2 158.1 224.5 158.1 225V227.1C158.1 227.5 158 227.8 157.8 228C157.6 228.2 157.3 228.4 156.8 228.4H153.6C151.5 228.4 149.9 229 148.8 230.2C147.6 231.4 147 233 147 235.1V251.6C147 252 146.9 252.3 146.6 252.5C146.3 252.7 146 252.9 145.6 252.9H143C142.6 252.8 142.3 252.6 142.1 252.4Z" fill="#111111"/>
<path d="M163.4 249.8C161.2 247.5 160 244.4 159.8 240.6L159.7 238.2L159.8 235.8C159.9 232 161.2 228.9 163.4 226.6C165.7 224.3 168.8 223.1 172.8 223.1C176.8 223.1 180 224.3 182.2 226.6C184.5 228.9 185.7 232 185.8 235.8C185.9 236.6 185.9 237.4 185.9 238.2C185.9 239 185.9 239.8 185.8 240.6C185.6 244.4 184.5 247.5 182.2 249.8C180 252.1 176.8 253.3 172.7 253.3C168.8 253.3 165.7 252.2 163.4 249.8ZM178.6 246.8C180 245.3 180.8 243.1 180.9 240.3C180.9 239.9 181 239.2 181 238.2C181 237.2 181 236.4 180.9 236.1C180.8 233.3 180 231.1 178.6 229.6C177.2 228.1 175.3 227.3 172.9 227.3C170.5 227.3 168.6 228.1 167.2 229.6C165.8 231.1 165 233.3 164.9 236.1L164.8 238.2L164.9 240.3C165 243.1 165.8 245.3 167.2 246.8C168.6 248.3 170.5 249.1 172.9 249.1C175.3 249.1 177.2 248.4 178.6 246.8Z" fill="#111111"/>
<path d="M205.8 249.9C203.7 247.6 202.6 244.5 202.4 240.4L202.3 238.2L202.4 236C202.5 231.9 203.6 228.8 205.8 226.5C207.9 224.2 210.9 223.1 214.8 223.1C217.3 223.1 219.4 223.5 221.1 224.4C222.8 225.3 224.1 226.4 225 227.8C225.9 229.2 226.3 230.6 226.4 232C226.4 232.3 226.3 232.6 226.1 232.9C225.8 233.1 225.5 233.3 225.2 233.3H224.4C224 233.3 223.8 233.2 223.6 233C223.4 232.8 223.3 232.5 223.1 232.1C222.4 230 221.3 228.6 220 227.7C218.7 226.8 217 226.4 214.9 226.4C212.2 226.4 210.1 227.2 208.5 228.8C206.9 230.4 206.1 232.9 206 236.3L205.9 238.3L206 240.3C206.1 243.7 207 246.2 208.5 247.8C210.1 249.4 212.2 250.2 214.9 250.2C217 250.2 218.7 249.8 220 248.9C221.3 248 222.4 246.6 223.1 244.5C223.3 244.1 223.5 243.7 223.6 243.6C223.7 243.5 224 243.3 224.4 243.3H225.2C225.5 243.3 225.8 243.4 226.1 243.7C226.4 243.9 226.5 244.2 226.4 244.6C226.3 246.1 225.9 247.5 225 248.8C224.1 250.2 222.8 251.3 221.1 252.2C219.4 253.1 217.3 253.5 214.8 253.5C211 253.3 208 252.2 205.8 249.9Z" fill="#111111"/>
<path d="M233.1 252.4C232.9 252.2 232.8 251.9 232.8 251.5V214.2C232.8 213.8 232.9 213.5 233.1 213.3C233.3 213.1 233.6 213 234 213H235C235.4 213 235.7 213.1 235.9 213.3C236.1 213.5 236.2 213.8 236.2 214.2V251.5C236.2 251.9 236.1 252.2 235.9 252.4C235.7 252.6 235.4 252.7 235 252.7H234C233.6 252.8 233.3 252.6 233.1 252.4Z" fill="#111111"/>
<path d="M246.2 249.8C244.1 247.4 242.9 244.4 242.8 240.6L242.7 238.2L242.8 235.8C242.9 232 244 229 246.2 226.6C248.3 224.2 251.4 223 255.2 223C259 223 262.1 224.2 264.2 226.6C266.3 229 267.5 232 267.6 235.8C267.6 236.2 267.7 237 267.7 238.2C267.7 239.4 267.7 240.2 267.6 240.6C267.5 244.4 266.4 247.4 264.2 249.8C262.1 252.2 259 253.4 255.2 253.4C251.4 253.4 248.4 252.1 246.2 249.8ZM261.7 247.5C263.3 245.8 264.2 243.4 264.3 240.2C264.3 239.8 264.4 239.1 264.4 238.1C264.4 237.1 264.4 236.4 264.3 236C264.2 232.9 263.3 230.4 261.7 228.7C260.1 227 257.9 226.2 255.3 226.2C252.6 226.2 250.5 227 248.9 228.7C247.3 230.4 246.4 232.8 246.3 236L246.2 238.1L246.3 240.2C246.4 243.3 247.3 245.8 248.9 247.5C250.5 249.2 252.7 250 255.3 250C257.9 250.1 260.1 249.2 261.7 247.5Z" fill="#111111"/>
<path d="M276.9 249.8C275 247.5 274 244.5 274 240.7V224.8C274 224.4 274.1 224.1 274.3 223.9C274.5 223.7 274.8 223.6 275.2 223.6H276.2C276.6 223.6 276.9 223.7 277.1 223.9C277.3 224.1 277.4 224.4 277.4 224.8V240.4C277.4 246.8 280.2 250 285.7 250C288.4 250 290.5 249.2 292.1 247.5C293.7 245.8 294.5 243.5 294.5 240.5V224.9C294.5 224.5 294.6 224.2 294.8 224C295 223.8 295.3 223.7 295.7 223.7H296.7C297.1 223.7 297.4 223.8 297.6 224C297.8 224.2 297.9 224.5 297.9 224.9V251.6C297.9 252 297.8 252.3 297.6 252.5C297.4 252.7 297.1 252.8 296.7 252.8H295.7C295.3 252.8 295 252.7 294.8 252.5C294.6 252.3 294.5 252 294.5 251.6V249C293.4 250.5 292.1 251.6 290.7 252.3C289.3 253 287.4 253.4 285.2 253.4C281.6 253.3 278.8 252.2 276.9 249.8Z" fill="#111111"/>
<path d="M307.6 249.4C305.7 246.8 304.7 243.6 304.5 239.8L304.4 238.2L304.5 236.6C304.6 232.8 305.6 229.6 307.6 227C309.5 224.4 312.5 223.1 316.5 223.1C320.6 223.1 323.7 224.6 325.9 227.5V214.2C325.9 213.8 326 213.5 326.2 213.3C326.4 213.1 326.7 213 327.1 213H328.1C328.5 213 328.8 213.1 329 213.3C329.2 213.5 329.3 213.8 329.3 214.2V251.5C329.3 251.9 329.2 252.2 329 252.4C328.8 252.6 328.5 252.7 328.1 252.7H327.1C326.7 252.7 326.4 252.6 326.2 252.4C326 252.2 325.9 251.9 325.9 251.5V248.9C323.7 251.9 320.6 253.3 316.5 253.3C312.5 253.3 309.5 252 307.6 249.4ZM323.5 247.1C325 245.1 325.8 242.8 325.9 240.2C325.9 239.8 326 239.1 326 238C326 236.9 326 236.2 325.9 235.8C325.9 234.2 325.5 232.7 324.8 231.2C324.1 229.7 323.1 228.6 321.8 227.6C320.5 226.7 318.8 226.2 316.8 226.2C313.8 226.2 311.6 227.2 310.2 229.1C308.8 231 308 233.5 307.9 236.5L307.8 238.1C307.8 241.6 308.5 244.4 309.8 246.6C311.1 248.8 313.5 249.9 316.7 249.9C319.8 250.1 322 249.1 323.5 247.1Z" fill="#111111"/>
<path fill-rule="evenodd" clip-rule="evenodd" d="M68.9004 85.8L86.3004 76L170.5 123.8L235.4 85.9L152.2 37.6L170.5 27.5L272.9 86.3V37.9L254.3 48.7L170.5 0L103.8 38.2L187.6 86.4L170.7 96L155.7 87.5L68.9004 38.2V85.8Z" fill="url(#paint0_linear)"/>
<path fill-rule="evenodd" clip-rule="evenodd" d="M68.9004 85.6001L170.5 144.2L272.9 86.4001V117.3L170.5 175.9L68.9004 117.3V85.6001Z" fill="#00BCEB"/>
<defs>
<linearGradient id="paint0_linear" x1="170.876" y1="120.978" x2="170.876" y2="2.05269" gradientUnits="userSpaceOnUse">
<stop stop-color="#00BCEB"/>
<stop offset="0.3831" stop-color="#198AEF"/>
<stop offset="1" stop-color="#4432F5"/>
</linearGradient>
</defs>
</svg>
